<?xml version="1.0" encoding="utf-8"?>
<!-- Generator: Adobe Illustrator 16.0.0, SVG Export Plug-In . SVG Version: 6.00 Build 0)  -->
<!DOCTYPE svg PUBLIC "-//W3C//DTD SVG 1.1//EN" "http://www.w3.org/Graphics/SVG/1.1/DTD/svg11.dtd">
<svg version="1.1" id="Layer_1" xmlns="http://www.w3.org/2000/svg" xmlns:xlink="http://www.w3.org/1999/xlink" x="0px" y="0px"
	 width="240px" height="32px" viewBox="0 0 240 32" enable-background="new 0 0 240 32" xml:space="preserve">
<g opacity="0.9">
	<path fill="#FFFFFF" d="M58.86,20.756c0.061-0.695-0.151-1.299-0.634-1.812l-4.834-4.956c-1.058-1.057-1.541-2.477-1.42-3.927
		c0.121-1.45,0.815-2.78,1.994-3.656c1.178-0.876,2.659-1.208,4.079-0.937c1.42,0.332,2.659,1.148,3.384,2.447
		c0.393,0.695,0.151,1.541-0.544,1.994c-0.695,0.393-1.571,0.151-1.964-0.544c-0.333-0.543-0.816-0.906-1.45-1.057
		c-0.634-0.121-1.239,0.03-1.752,0.423c-0.514,0.393-0.815,0.906-0.846,1.571c-0.061,0.634,0.151,1.208,0.604,1.662l4.804,4.955
		c1.057,1.087,1.601,2.568,1.48,4.048c-0.121,1.541-0.876,2.84-2.054,3.777c-1.208,0.936-2.719,1.238-4.2,0.967
		c-1.48-0.333-2.749-1.209-3.474-2.508c-0.453-0.695-0.182-1.602,0.514-1.994c0.695-0.393,1.541-0.151,1.994,0.543
		c0.333,0.574,0.846,0.967,1.541,1.119c0.695,0.12,1.329-0.031,1.873-0.454C58.528,22.024,58.77,21.45,58.86,20.756z"/>
	<path fill="#FFFFFF" d="M74.599,5.377c0.816,0,1.45,0.634,1.45,1.45v17.523c0,0.815-0.634,1.45-1.45,1.45
		c-0.815,0-1.45-0.635-1.45-1.45v-7.613h-4.351v7.613c0,0.815-0.634,1.45-1.45,1.45c-0.815,0-1.45-0.635-1.45-1.45V6.828
		c0-0.816,0.635-1.45,1.45-1.45c0.816,0,1.45,0.634,1.45,1.45v7.009h4.351V6.828C73.148,6.012,73.783,5.377,74.599,5.377z"/>
	<path fill="#FFFFFF" d="M82.452,5.498h6.043c0.815,0,1.45,0.635,1.45,1.45c0,0.816-0.635,1.45-1.45,1.45h-4.593v5.438h3.988
		c0.816,0,1.45,0.634,1.45,1.45s-0.634,1.45-1.45,1.45h-3.988v6.042h4.593c0.815,0,1.45,0.635,1.45,1.451
		c0,0.815-0.635,1.449-1.45,1.449h-6.043c-0.815,0-1.45-0.634-1.45-1.449V6.948C81.002,6.133,81.637,5.498,82.452,5.498z"/>
	<path fill="#FFFFFF" d="M101.364,16.768l2.628,7.07c0.333,0.755-0.091,1.601-0.846,1.873c-0.755,0.271-1.541-0.092-1.873-0.847
		l-2.81-7.522h-1.632v7.009c0,0.815-0.634,1.45-1.45,1.45c-0.815,0-1.45-0.635-1.45-1.45V6.948c0-0.815,0.635-1.45,1.45-1.45h3.626
		c2.81,0,5.075,2.266,5.075,5.076v1.691C104.083,14.229,103.026,15.921,101.364,16.768z M99.008,14.441
		c1.208,0,2.175-0.967,2.175-2.176v-1.691c0-1.209-0.967-2.176-2.175-2.176h-2.176v6.043H99.008z"/>
	<path fill="#FFFFFF" d="M109.761,5.498h3.626c2.81,0,5.075,2.266,5.075,5.076v1.691c0,2.81-2.266,5.076-5.075,5.076h-2.176v7.009
		c0,0.815-0.634,1.45-1.45,1.45c-0.815,0-1.45-0.635-1.45-1.45V6.948C108.311,6.133,108.945,5.498,109.761,5.498z M113.387,8.398
		h-2.176v6.043h2.176c1.208,0,2.175-0.967,2.175-2.176v-1.691C115.562,9.365,114.595,8.398,113.387,8.398z"/>
	<path fill="#FFFFFF" d="M131.18,25.74c-0.814,0.212-1.57-0.241-1.781-0.996c-0.092-0.242-0.152-0.545-0.242-0.877
		c-0.151-0.574-0.393-1.359-0.635-2.296h-5.136c-0.272,0.937-0.483,1.722-0.635,2.296c-0.091,0.332-0.151,0.635-0.241,0.877
		c-0.212,0.755-0.967,1.208-1.783,0.996c-0.755-0.211-1.208-0.967-0.997-1.782l4.834-17.523c0.15-0.635,0.694-1.058,1.389-1.058
		c0.695,0,1.239,0.423,1.391,1.058l4.834,17.523C132.389,24.773,131.936,25.529,131.18,25.74z M125.953,12.296
		c-0.574,1.964-1.178,4.291-1.752,6.375h3.505C127.132,16.586,126.527,14.26,125.953,12.296z"/>
	<path fill="#FFFFFF" d="M143.111,20.726V10.453c0-2.296,1.541-4.32,3.746-4.895c2.266-0.604,4.532,0.333,5.711,2.356
		c0.453,0.695,0.181,1.541-0.514,1.994c-0.695,0.393-1.541,0.151-1.994-0.544c-0.484-0.846-1.48-1.269-2.447-0.997
		c-0.938,0.242-1.602,1.118-1.602,2.084v10.272c0,0.997,0.664,1.843,1.602,2.114c0.967,0.242,1.963-0.181,2.447-1.027
		c0.453-0.694,1.299-0.936,1.994-0.543c0.694,0.453,0.967,1.299,0.514,1.994c-1.179,2.023-3.445,2.961-5.711,2.355
		C144.652,25.046,143.111,23.052,143.111,20.726z"/>
	<path fill="#FFFFFF" d="M156.917,24.23V6.828c0-0.816,0.635-1.45,1.45-1.45c0.816,0,1.45,0.634,1.45,1.45v15.952h4.593
		c0.815,0,1.45,0.635,1.45,1.451c0,0.815-0.635,1.449-1.45,1.449h-6.043C157.552,25.68,156.917,25.046,156.917,24.23z"/>
	<path fill="#FFFFFF" d="M169.242,24.351V6.828c0-0.816,0.635-1.45,1.45-1.45s1.45,0.634,1.45,1.45v17.523
		c0,0.815-0.635,1.45-1.45,1.45S169.242,25.166,169.242,24.351z"/>
	<path fill="#FFFFFF" d="M185.707,24.985c-0.604-1.3-1.238-2.599-1.903-3.958c-1.118-2.296-2.568-5.227-3.807-7.855v11.178
		c0,0.815-0.635,1.45-1.45,1.45c-0.816,0-1.45-0.635-1.45-1.45V6.828c0-0.695,0.423-1.269,1.118-1.42
		c0.694-0.151,1.299,0.181,1.631,0.786c0.604,1.299,1.238,2.598,1.903,3.958c1.118,2.296,2.508,5.227,3.807,7.855V6.828
		c0-0.816,0.635-1.45,1.45-1.45c0.816,0,1.45,0.634,1.45,1.45v17.523c0,0.695-0.483,1.269-1.118,1.421
		C186.644,25.922,185.979,25.59,185.707,24.985z"/>
	<path fill="#FFFFFF" d="M193.409,24.351V6.828c0-0.816,0.635-1.45,1.45-1.45c0.816,0,1.45,0.634,1.45,1.45v17.523
		c0,0.815-0.634,1.45-1.45,1.45C194.044,25.801,193.409,25.166,193.409,24.351z"/>
	<path fill="#FFFFFF" d="M200.901,20.726V10.453c0-2.296,1.541-4.32,3.746-4.895c2.267-0.604,4.532,0.333,5.71,2.356
		c0.453,0.695,0.182,1.541-0.514,1.994c-0.694,0.393-1.541,0.151-1.994-0.544c-0.482-0.846-1.48-1.269-2.447-0.997
		c-0.936,0.242-1.601,1.118-1.601,2.084v10.272c0,0.997,0.665,1.843,1.601,2.114c0.967,0.242,1.965-0.181,2.447-1.027
		c0.453-0.694,1.3-0.936,1.994-0.543c0.695,0.453,0.967,1.299,0.514,1.994c-1.178,2.023-3.443,2.961-5.71,2.355
		C202.442,25.046,200.901,23.052,200.901,20.726z"/>
	<path fill="#FFFFFF" d="M224.889,25.74c-0.816,0.212-1.571-0.241-1.783-0.996c-0.09-0.242-0.15-0.545-0.241-0.877
		c-0.151-0.574-0.394-1.359-0.635-2.296h-5.136c-0.271,0.937-0.483,1.722-0.635,2.296c-0.09,0.332-0.15,0.635-0.242,0.877
		c-0.211,0.755-0.967,1.208-1.781,0.996c-0.756-0.211-1.209-0.967-0.998-1.782l4.834-17.523c0.151-0.635,0.695-1.058,1.391-1.058
		c0.694,0,1.238,0.423,1.389,1.058l4.834,17.523C226.097,24.773,225.644,25.529,224.889,25.74z M219.662,12.296
		c-0.574,1.964-1.179,4.291-1.753,6.375h3.505C220.84,16.586,220.236,14.26,219.662,12.296z"/>
	<path fill="#FFFFFF" d="M229.569,24.23V6.828c0-0.816,0.635-1.45,1.45-1.45c0.816,0,1.45,0.634,1.45,1.45v15.952h4.593
		c0.815,0,1.45,0.635,1.45,1.451c0,0.815-0.635,1.449-1.45,1.449h-6.043C230.204,25.68,229.569,25.046,229.569,24.23z"/>
</g>
<g opacity="0.7">
	<path fill="#FFFFFF" d="M34,19c0,1.657-1.343,3-3,3H5c-1.657,0-3-1.343-3-3v-6c0-1.657,1.343-3,3-3h26c1.657,0,3,1.343,3,3V19z"/>
</g>
<g opacity="0.7">
	<path fill="#FFFFFF" d="M24,29c0,1.657-1.343,3-3,3h-6c-1.657,0-3-1.343-3-3V3c0-1.657,1.343-3,3-3h6c1.657,0,3,1.343,3,3V29z"/>
</g>
<g>
</g>
<g>
</g>
<g>
</g>
<g>
</g>
<g>
</g>
<g>
</g>
<g>
</g>
<g>
</g>
<g>
</g>
<g>
</g>
<g>
</g>
<g>
</g>
<g>
</g>
<g>
</g>
<g>
</g>
</svg>
